<svg xmlns="http://www.w3.org/2000/svg" width="32" height="32" viewBox="0 0 1024 1024" version="1.1"><path d="M 482 101.627 C 396.246 109.210, 324.136 137.464, 260 188.610 C 242.689 202.415, 213.415 231.689, 199.610 249 C 180.327 273.181, 165.695 296.201, 152.502 323.112 C 123.787 381.689, 110.654 442.259, 112.306 508.500 C 114.557 598.760, 142.897 676.754, 199.296 747.901 C 212.154 764.122, 242.774 794.642, 259.809 808.217 C 365.258 892.247, 499.968 918.850, 629.998 881.324 C 650.064 875.533, 672.136 866.757, 694 855.877 C 734.300 835.821, 766.350 812.728, 798.550 780.542 C 855.883 723.235, 892.134 655.815, 907.995 577 C 919.801 518.331, 918.117 458.200, 902.996 398.475 C 889.104 343.608, 862.827 291.706, 826.322 247.033 C 761.897 168.192, 671.272 118.143, 567 103.818 C 555.505 102.239, 545.662 101.764, 519.500 101.528 C 501.350 101.363, 484.475 101.408, 482 101.627 M 491.500 137.597 C 455.687 140.322, 427.662 145.640, 397 155.529 C 325.796 178.493, 264.170 222.418, 219.224 282.242 C 182.450 331.189, 158.725 390.138, 150.417 453.205 C 148.214 469.932, 147.404 513.090, 148.952 531.294 C 157.242 628.804, 205.197 718.546, 282.007 780.285 C 291.835 788.185, 316.031 805.303, 316.585 804.748 C 316.723 804.611, 316.452 802.451, 315.985 799.948 C 312.541 781.516, 312.258 733.043, 315.448 708 C 317.514 691.777, 320.056 677.816, 320.862 678.256 C 326.753 681.472, 336.824 685.548, 342.407 686.975 C 350.053 688.930, 364.999 690.993, 371.549 690.997 C 375.321 691, 375.690 691.256, 376.943 694.750 C 379.117 700.815, 384.283 708.170, 389.941 713.257 C 415.532 736.266, 454.987 725.090, 465.485 691.859 C 472.127 670.831, 465.921 644.617, 448.976 622.129 C 436.364 605.392, 420.220 594.349, 406.786 593.271 C 400.659 592.779, 400.232 592.890, 398.170 595.512 C 395.486 598.923, 395.436 601.013, 397.959 604.221 C 399.402 606.055, 401.216 606.865, 404.840 607.295 C 412.017 608.145, 418.468 611.572, 425.814 618.437 C 438.204 630.016, 448.093 645.918, 451.587 659.883 C 454.048 669.720, 453.224 682.835, 449.656 690.610 C 442.749 705.662, 427.033 713.768, 412.786 709.626 C 400.793 706.140, 392.783 697.672, 388.671 684.133 L 386.352 676.500 371.426 675.893 C 339.630 674.600, 325.290 667.871, 316.909 650.309 C 308.443 632.571, 309.486 607.649, 319.954 577.500 C 325.035 562.868, 337.113 539.553, 344.713 529.708 C 356.449 514.504, 356.224 514.896, 355.669 510.662 C 355.393 508.552, 353.557 504.502, 351.590 501.662 C 349.623 498.823, 345.966 493.575, 343.462 490 C 338.812 483.360, 330.337 467.326, 331.085 466.585 C 331.313 466.359, 337.080 464.569, 343.899 462.607 C 350.719 460.645, 357.131 458.286, 358.149 457.365 C 360.548 455.195, 360.560 449.816, 358.171 447.655 C 355.567 445.299, 352.027 445.575, 339.147 449.141 C 330.633 451.499, 327.608 451.983, 327.049 451.079 C 326.396 450.022, 325.266 443.093, 323.328 428.250 L 322.773 424 335.386 424 C 346.667 424, 348.211 423.789, 350 422 C 352.698 419.302, 352.556 414.871, 349.686 412.174 C 347.574 410.191, 346.316 410, 335.353 410 L 323.335 410 323.728 404.250 C 325.389 379.916, 334.889 352.462, 348.913 331.464 L 354.741 322.737 353.406 317.618 C 351.327 309.652, 347.174 284.600, 346.032 273.144 C 343.880 251.552, 345.458 229.869, 350.080 217.515 C 354.277 206.299, 365.613 198.793, 375.696 200.553 C 386.866 202.503, 409.866 219.960, 447.097 254.746 L 450.694 258.107 462.097 255.165 C 496.618 246.257, 538.247 246.196, 572.938 255.004 L 580.375 256.892 590.443 247.196 C 611.275 227.133, 632.897 209.738, 645.071 203.250 C 658.747 195.961, 672.797 201.029, 678.994 215.487 C 682.712 224.160, 683.501 230.840, 683.481 253.500 C 683.461 276.186, 681.734 292.491, 677.088 313.873 L 675.268 322.246 681.139 330.373 C 687.443 339.099, 696.593 356.745, 699.873 366.500 C 704.139 379.190, 708 398.466, 708 407.072 L 708 410 696.111 410 C 686.046 410, 683.872 410.283, 681.944 411.844 C 679.133 414.120, 678.908 419.136, 681.488 421.987 C 683.129 423.800, 684.553 424, 695.799 424 L 708.287 424 707.642 430.942 C 707.063 437.177, 704.360 451.974, 703.675 452.658 C 703.526 452.807, 697.830 451.370, 691.016 449.465 C 684.203 447.559, 677.812 446, 676.814 446 C 672.266 446, 669.311 453.325, 672.250 457.314 C 672.983 458.309, 678.877 460.521, 686.500 462.662 C 693.650 464.670, 699.873 466.638, 700.328 467.035 C 701.933 468.433, 691.387 486.810, 682.350 498.365 C 673.785 509.315, 673.911 512.208, 683.530 525.500 C 703.495 553.087, 719.864 602.439, 730.462 667 C 736.595 704.367, 737.738 741.718, 733.136 754.419 C 727.207 770.783, 715.791 780.692, 697.960 784.950 C 693.368 786.047, 689.473 786.806, 689.304 786.637 C 689.135 786.469, 688.540 779.393, 687.982 770.915 C 685.627 735.165, 681.252 697.021, 676.860 673.962 C 675.043 664.419, 674.226 662.073, 671.919 659.765 C 668.596 656.442, 666.182 656.282, 662.544 659.144 C 659.377 661.635, 659.303 660.111, 663.825 685.500 C 669.206 715.710, 673.574 762.862, 674.688 802.750 C 675.029 814.987, 675.580 825, 675.912 825 C 677.737 825, 704.315 809.608, 716.417 801.542 C 739.199 786.358, 753.260 774.793, 773.579 754.528 C 795.064 733.101, 805.538 720.485, 820.512 698 C 852.657 649.733, 871.281 598.428, 878.048 539.501 C 881.467 509.731, 880.467 471.237, 875.468 440.151 C 859.040 337.996, 798.387 247.067, 710.569 192.942 C 664.492 164.542, 615.700 147.306, 560.500 139.930 C 546.103 138.006, 504.577 136.602, 491.500 137.597 M 649.412 224.916 C 646.614 226.533, 641.018 230.342, 636.978 233.382 C 628.669 239.633, 602 263.841, 602 265.133 C 602 265.597, 605.602 267.789, 610.003 270.002 C 625.349 277.717, 636.646 285.372, 650.164 297.215 L 656.828 303.053 658.361 296.277 C 660.806 285.478, 662.216 268.835, 662.240 250.500 C 662.259 236.430, 661.939 232.552, 660.382 228 C 658.087 221.292, 656.472 220.838, 649.412 224.916 M 370.550 225.904 C 365.560 235.553, 366.127 274.361, 371.591 297.210 L 373.196 303.919 382.760 295.832 C 393.952 286.367, 405.442 278.694, 419.237 271.471 L 429.139 266.287 418.319 256.230 C 401.267 240.379, 386.317 228.281, 379.300 224.654 C 374.611 222.231, 372.277 222.564, 370.550 225.904 M 403.994 359.196 C 401.032 360.295, 398.815 364.413, 399.569 367.417 C 400.646 371.710, 403.569 373, 412.223 373 C 419.666 373, 420 373.099, 420 375.294 C 420 379.074, 426.166 388.178, 431.397 392.125 C 444.963 402.358, 465.733 400.786, 476.651 388.701 C 484.258 380.281, 487.595 366.335, 483.250 361.122 C 481.536 359.066, 480.716 359.017, 443.686 358.761 C 422.888 358.618, 405.027 358.813, 403.994 359.196 M 548 361 C 545.297 363.703, 545.482 367.572, 548.455 370.545 C 550.648 372.739, 551.753 373, 558.843 373 L 566.777 373 567.424 376.447 C 568.273 380.974, 574.886 389.677, 580.176 393.230 C 597.484 404.854, 621.952 397.867, 630.480 378.866 C 633.733 371.617, 634.177 363.958, 631.515 361.017 C 629.743 359.059, 628.531 359, 589.845 359 C 551.333 359, 549.933 359.067, 548 361 M 493.400 400.765 C 492.795 401.169, 491.766 402.512, 491.115 403.750 C 489.599 406.627, 490.097 407.584, 500.130 421.110 C 508.906 432.942, 509.676 435.795, 506.023 442.956 C 501.680 451.468, 494.492 453.679, 485.005 449.422 C 479.253 446.840, 478.560 446.736, 476.146 448.092 C 474.705 448.900, 473.085 450.816, 472.546 452.349 C 470.996 456.757, 473.496 460.065, 480.535 462.918 C 491.903 467.527, 503.532 465.740, 512.308 458.034 L 516.014 454.780 519.985 458.367 C 525.508 463.357, 530.381 465.246, 538 465.352 C 554.056 465.575, 565.797 455.705, 557.365 449.073 C 554.022 446.443, 553.337 446.470, 546.849 449.490 C 540.368 452.508, 537.860 452.600, 532.566 450.015 C 527.537 447.560, 524.201 442.792, 523.425 436.950 C 522.846 432.587, 523.008 432.267, 531.768 420.500 C 536.682 413.900, 540.969 407.741, 541.295 406.814 C 541.630 405.861, 541.011 404.012, 539.872 402.564 L 537.855 400 516.177 400.015 C 504.255 400.024, 494.005 400.361, 493.400 400.765" stroke="none" fill="#eb941b" fill-rule="evenodd"/><path d="M 0 512.001 L 0 1024.002 512.250 1023.751 L 1024.500 1023.500 1024.751 511.750 L 1025.002 0 512.501 0 L 0 0 0 512.001 M 0.496 512.500 C 0.496 794.100, 0.610 909.151, 0.750 768.168 C 0.890 627.186, 0.890 396.786, 0.750 256.168 C 0.610 115.551, 0.496 230.900, 0.496 512.500 M 482 101.627 C 396.246 109.210, 324.136 137.464, 260 188.610 C 242.689 202.415, 213.415 231.689, 199.610 249 C 180.327 273.181, 165.695 296.201, 152.502 323.112 C 123.787 381.689, 110.654 442.259, 112.306 508.500 C 114.557 598.760, 142.897 676.754, 199.296 747.901 C 212.154 764.122, 242.774 794.642, 259.809 808.217 C 365.258 892.247, 499.968 918.850, 629.998 881.324 C 650.064 875.533, 672.136 866.757, 694 855.877 C 734.300 835.821, 766.350 812.728, 798.550 780.542 C 855.883 723.235, 892.134 655.815, 907.995 577 C 919.801 518.331, 918.117 458.200, 902.996 398.475 C 889.104 343.608, 862.827 291.706, 826.322 247.033 C 761.897 168.192, 671.272 118.143, 567 103.818 C 555.505 102.239, 545.662 101.764, 519.500 101.528 C 501.350 101.363, 484.475 101.408, 482 101.627 M 491.500 137.597 C 455.687 140.322, 427.662 145.640, 397 155.529 C 325.796 178.493, 264.170 222.418, 219.224 282.242 C 182.450 331.189, 158.725 390.138, 150.417 453.205 C 148.214 469.932, 147.404 513.090, 148.952 531.294 C 157.242 628.804, 205.197 718.546, 282.007 780.285 C 291.835 788.185, 316.031 805.303, 316.585 804.748 C 316.723 804.611, 316.452 802.451, 315.985 799.948 C 312.541 781.516, 312.258 733.043, 315.448 708 C 317.514 691.777, 320.056 677.816, 320.862 678.256 C 326.753 681.472, 336.824 685.548, 342.407 686.975 C 350.053 688.930, 364.999 690.993, 371.549 690.997 C 375.321 691, 375.690 691.256, 376.943 694.750 C 379.117 700.815, 384.283 708.170, 389.941 713.257 C 415.532 736.266, 454.987 725.090, 465.485 691.859 C 472.127 670.831, 465.921 644.617, 448.976 622.129 C 436.364 605.392, 420.220 594.349, 406.786 593.271 C 400.659 592.779, 400.232 592.890, 398.170 595.512 C 395.486 598.923, 395.436 601.013, 397.959 604.221 C 399.402 606.055, 401.216 606.865, 404.840 607.295 C 412.017 608.145, 418.468 611.572, 425.814 618.437 C 438.204 630.016, 448.093 645.918, 451.587 659.883 C 454.048 669.720, 453.224 682.835, 449.656 690.610 C 442.749 705.662, 427.033 713.768, 412.786 709.626 C 400.793 706.140, 392.783 697.672, 388.671 684.133 L 386.352 676.500 371.426 675.893 C 339.630 674.600, 325.290 667.871, 316.909 650.309 C 308.443 632.571, 309.486 607.649, 319.954 577.500 C 325.035 562.868, 337.113 539.553, 344.713 529.708 C 356.449 514.504, 356.224 514.896, 355.669 510.662 C 355.393 508.552, 353.557 504.502, 351.590 501.662 C 349.623 498.823, 345.966 493.575, 343.462 490 C 338.812 483.360, 330.337 467.326, 331.085 466.585 C 331.313 466.359, 337.080 464.569, 343.899 462.607 C 350.719 460.645, 357.131 458.286, 358.149 457.365 C 360.548 455.195, 360.560 449.816, 358.171 447.655 C 355.567 445.299, 352.027 445.575, 339.147 449.141 C 330.633 451.499, 327.608 451.983, 327.049 451.079 C 326.396 450.022, 325.266 443.093, 323.328 428.250 L 322.773 424 335.386 424 C 346.667 424, 348.211 423.789, 350 422 C 352.698 419.302, 352.556 414.871, 349.686 412.174 C 347.574 410.191, 346.316 410, 335.353 410 L 323.335 410 323.728 404.250 C 325.389 379.916, 334.889 352.462, 348.913 331.464 L 354.741 322.737 353.406 317.618 C 351.327 309.652, 347.174 284.600, 346.032 273.144 C 343.880 251.552, 345.458 229.869, 350.080 217.515 C 354.277 206.299, 365.613 198.793, 375.696 200.553 C 386.866 202.503, 409.866 219.960, 447.097 254.746 L 450.694 258.107 462.097 255.165 C 496.618 246.257, 538.247 246.196, 572.938 255.004 L 580.375 256.892 590.443 247.196 C 611.275 227.133, 632.897 209.738, 645.071 203.250 C 658.747 195.961, 672.797 201.029, 678.994 215.487 C 682.712 224.160, 683.501 230.840, 683.481 253.500 C 683.461 276.186, 681.734 292.491, 677.088 313.873 L 675.268 322.246 681.139 330.373 C 687.443 339.099, 696.593 356.745, 699.873 366.500 C 704.139 379.190, 708 398.466, 708 407.072 L 708 410 696.111 410 C 686.046 410, 683.872 410.283, 681.944 411.844 C 679.133 414.120, 678.908 419.136, 681.488 421.987 C 683.129 423.800, 684.553 424, 695.799 424 L 708.287 424 707.642 430.942 C 707.063 437.177, 704.360 451.974, 703.675 452.658 C 703.526 452.807, 697.830 451.370, 691.016 449.465 C 684.203 447.559, 677.812 446, 676.814 446 C 672.266 446, 669.311 453.325, 672.250 457.314 C 672.983 458.309, 678.877 460.521, 686.500 462.662 C 693.650 464.670, 699.873 466.638, 700.328 467.035 C 701.933 468.433, 691.387 486.810, 682.350 498.365 C 673.785 509.315, 673.911 512.208, 683.530 525.500 C 703.495 553.087, 719.864 602.439, 730.462 667 C 736.595 704.367, 737.738 741.718, 733.136 754.419 C 727.207 770.783, 715.791 780.692, 697.960 784.950 C 693.368 786.047, 689.473 786.806, 689.304 786.637 C 689.135 786.469, 688.540 779.393, 687.982 770.915 C 685.627 735.165, 681.252 697.021, 676.860 673.962 C 675.043 664.419, 674.226 662.073, 671.919 659.765 C 668.596 656.442, 666.182 656.282, 662.544 659.144 C 659.377 661.635, 659.303 660.111, 663.825 685.500 C 669.206 715.710, 673.574 762.862, 674.688 802.750 C 675.029 814.987, 675.580 825, 675.912 825 C 677.737 825, 704.315 809.608, 716.417 801.542 C 739.199 786.358, 753.260 774.793, 773.579 754.528 C 795.064 733.101, 805.538 720.485, 820.512 698 C 852.657 649.733, 871.281 598.428, 878.048 539.501 C 881.467 509.731, 880.467 471.237, 875.468 440.151 C 859.040 337.996, 798.387 247.067, 710.569 192.942 C 664.492 164.542, 615.700 147.306, 560.500 139.930 C 546.103 138.006, 504.577 136.602, 491.500 137.597 M 649.412 224.916 C 646.614 226.533, 641.018 230.342, 636.978 233.382 C 628.669 239.633, 602 263.841, 602 265.133 C 602 265.597, 605.602 267.789, 610.003 270.002 C 625.349 277.717, 636.646 285.372, 650.164 297.215 L 656.828 303.053 658.361 296.277 C 660.806 285.478, 662.216 268.835, 662.240 250.500 C 662.259 236.430, 661.939 232.552, 660.382 228 C 658.087 221.292, 656.472 220.838, 649.412 224.916 M 370.550 225.904 C 365.560 235.553, 366.127 274.361, 371.591 297.210 L 373.196 303.919 382.760 295.832 C 393.952 286.367, 405.442 278.694, 419.237 271.471 L 429.139 266.287 418.319 256.230 C 401.267 240.379, 386.317 228.281, 379.300 224.654 C 374.611 222.231, 372.277 222.564, 370.550 225.904 M 403.994 359.196 C 401.032 360.295, 398.815 364.413, 399.569 367.417 C 400.646 371.710, 403.569 373, 412.223 373 C 419.666 373, 420 373.099, 420 375.294 C 420 379.074, 426.166 388.178, 431.397 392.125 C 444.963 402.358, 465.733 400.786, 476.651 388.701 C 484.258 380.281, 487.595 366.335, 483.250 361.122 C 481.536 359.066, 480.716 359.017, 443.686 358.761 C 422.888 358.618, 405.027 358.813, 403.994 359.196 M 548 361 C 545.297 363.703, 545.482 367.572, 548.455 370.545 C 550.648 372.739, 551.753 373, 558.843 373 L 566.777 373 567.424 376.447 C 568.273 380.974, 574.886 389.677, 580.176 393.230 C 597.484 404.854, 621.952 397.867, 630.480 378.866 C 633.733 371.617, 634.177 363.958, 631.515 361.017 C 629.743 359.059, 628.531 359, 589.845 359 C 551.333 359, 549.933 359.067, 548 361 M 493.400 400.765 C 492.795 401.169, 491.766 402.512, 491.115 403.750 C 489.599 406.627, 490.097 407.584, 500.130 421.110 C 508.906 432.942, 509.676 435.795, 506.023 442.956 C 501.680 451.468, 494.492 453.679, 485.005 449.422 C 479.253 446.840, 478.560 446.736, 476.146 448.092 C 474.705 448.900, 473.085 450.816, 472.546 452.349 C 470.996 456.757, 473.496 460.065, 480.535 462.918 C 491.903 467.527, 503.532 465.740, 512.308 458.034 L 516.014 454.780 519.985 458.367 C 525.508 463.357, 530.381 465.246, 538 465.352 C 554.056 465.575, 565.797 455.705, 557.365 449.073 C 554.022 446.443, 553.337 446.470, 546.849 449.490 C 540.368 452.508, 537.860 452.600, 532.566 450.015 C 527.537 447.560, 524.201 442.792, 523.425 436.950 C 522.846 432.587, 523.008 432.267, 531.768 420.500 C 536.682 413.900, 540.969 407.741, 541.295 406.814 C 541.630 405.861, 541.011 404.012, 539.872 402.564 L 537.855 400 516.177 400.015 C 504.255 400.024, 494.005 400.361, 493.400 400.765" stroke="none" fill="#040404" fill-rule="evenodd"/></svg>